<svg xmlns="http://www.w3.org/2000/svg" viewBox="0 0 66.58 66.58"><defs><style>.cls-1{fill:none;}.cls-2{fill:#231f20;}</style></defs><title>bus</title><g id="レイヤー_2" data-name="レイヤー 2"><g id="_" data-name="１"><g id="_1" data-name="1"><rect class="cls-1" width="66.58" height="66.58"/></g><g id="バス"><path class="cls-2" d="M19.29,48.61a4.44,4.44,0,1,1,4.43-4.43A4.43,4.43,0,0,1,19.29,48.61Z"/><path class="cls-2" d="M57.49,19.59H9.36A3.45,3.45,0,0,0,5.91,23V40.86a3.46,3.46,0,0,0,3.45,3.45h4v-.13a5.91,5.91,0,0,1,11.82,0,.57.57,0,0,1,0,.13H41.66v-.13a5.91,5.91,0,0,1,11.82,0s0,.09,0,.13h4a3.46,3.46,0,0,0,3.45-3.45V23A3.45,3.45,0,0,0,57.49,19.59ZM14,32l-1.74,8.47H9.36V25.35h0V25.1a1,1,0,0,1,1-1H14Zm30.2-7.87h6.52V32H44.17Zm-9.66,0H41V32H34.51Zm-9.65,0h6.52V32H24.86Zm-8.51,2a2,2,0,0,1,2-2h3.41V32H18.32a2,2,0,0,1-2-2Zm41.88,9.74H16.35V34.38H58.23Zm0-3.88H53.82V24.12h4.41Z"/><path class="cls-2" d="M47.57,48.61A4.44,4.44,0,1,1,52,44.18,4.44,4.44,0,0,1,47.57,48.61Z"/></g></g></g></svg>