<svg xmlns="http://www.w3.org/2000/svg" viewBox="0 0 66.58 66.58"><defs><style>.cls-1{fill:none;}</style></defs><title>camera</title><g id="レイヤー_2" data-name="レイヤー 2"><g id="_" data-name="１"><g id="_1" data-name="1"><rect class="cls-1" width="66.58" height="66.58"/></g><g id="バス"><path d="M54,21.34H50.41L50,17.63v-.07a3.61,3.61,0,0,0-3.51-3.06H36.41a3.61,3.61,0,0,0-3.51,3.06l-.38,3.78H28.1V18.16H15.8v3.18H12.62A3.82,3.82,0,0,0,8.8,25.16v23.1a3.82,3.82,0,0,0,3.82,3.82H54a3.83,3.83,0,0,0,3.82-3.82V25.16A3.83,3.83,0,0,0,54,21.34ZM33.29,48.78a8.27,8.27,0,1,1,8.27-8.27A8.27,8.27,0,0,1,33.29,48.78ZM54.11,28.93H12.47V25.16a.15.15,0,0,1,.15-.15h6.85V21.83h5V25H35.84l.69-6.84H46.4L47.09,25H54a.15.15,0,0,1,.15.15Z"/><path d="M38.49,40.51a5.2,5.2,0,1,1-5.2-5.19A5.2,5.2,0,0,1,38.49,40.51Z"/></g></g></g></svg>