<svg xmlns="http://www.w3.org/2000/svg" viewBox="0 0 136.94 103.8"><defs><style>.cls-1{fill:#f7f8f8;}</style></defs><title>day1-logo</title><g id="レイヤー_2" data-name="レイヤー 2"><g id="レイヤー_1-2" data-name="レイヤー 1"><g id="DAY1"><g id="DAY1-2" data-name="DAY1"><path class="cls-1" d="M0,0H15Q28,0,28,14.2V53.29q0,14.13-13.57,14.16H0ZM9.74,9.59V57.86H14c2.82,0,4.23-1.53,4.23-4.57V14.2q0-4.6-4.23-4.61Z"/><path class="cls-1" d="M63.34,43.52,66.5,67.45H56.67l-1.89-14.3H44.84l-1.92,14.3h-9.8l3.16-23.82L43.16,0H56.5Zm-9.83,0L49.8,15.47,46.08,43.52Z"/><path class="cls-1" d="M79.57,0,86.2,26.3,92.84,0h10.31L91.36,38.26l-.28.83V67.45H81.35V39.09l-.3-.83L69.25,0Z"/><path class="cls-1" d="M127.83,0V57.86h9.11v9.59H109V57.86h9.11V9.59H109V0Z"/><path class="cls-1" d="M0,96.72C0,94,1.38,91.57,4.14,89.6s4.16-3.66,4.17-5v-6c0-1.39-.64-2.08-1.91-2.08h0c-1.29,0-1.93.69-1.93,2.08v4.13H0V78.52q0-6.47,6.37-6.47t6.38,6.47v6.15c0,2.82-1.38,5.23-4.16,7.22s-4.15,3.71-4.15,5.2v1.85h8.31v4.38H0Z"/><path class="cls-1" d="M25.58,72.53l-6.13,30.79H15.73l6.13-30.79Z"/><path class="cls-1" d="M37.15,72.55V98.94h4.16v4.38H28.56V98.94h4.16v-22H28.56V72.55Z"/><path class="cls-1" d="M45.39,96.72c0-2.77,1.38-5.15,4.14-7.12s4.16-3.66,4.17-5v-6c0-1.39-.64-2.08-1.91-2.08h0c-1.28,0-1.92.69-1.92,2.08v4.13H45.39V78.52q0-6.47,6.36-6.47t6.39,6.47v6.15q0,4.23-4.16,7.22c-2.77,2-4.15,3.71-4.15,5.2v1.85h8.31v4.38H45.39Z"/><path class="cls-1" d="M62.89,90.13V86.47H73.65v3.66Z"/><path class="cls-1" d="M78.4,96.72c0-2.77,1.38-5.15,4.14-7.12s4.16-3.66,4.17-5v-6c0-1.39-.64-2.08-1.91-2.08h0c-1.28,0-1.92.69-1.92,2.08v4.13H78.4V78.52q0-6.47,6.36-6.47t6.39,6.47v6.15q0,4.23-4.16,7.22c-2.77,2-4.15,3.71-4.15,5.2v1.85h8.31v4.38H78.4Z"/><path class="cls-1" d="M104,72.53l-6.14,30.79H94.13l6.13-30.79Z"/><path class="cls-1" d="M115.55,72.55V98.94h4.16v4.38H107V98.94h4.15v-22H107V72.55Z"/><path class="cls-1" d="M132.1,88.61c0-1.09-.23-1.73-.69-1.93a3,3,0,0,0-1.21-.17h-.42a1.38,1.38,0,0,0-1.51,1.21L128.22,89h-4.43l.65-16.42h12.1v4.37h-7.83l-.31,6.62a3.83,3.83,0,0,1,3.07-1.3l.55,0a4.64,4.64,0,0,1,3.53,1.87,7.73,7.73,0,0,1,1,4.47v8.73q0,6.47-6.39,6.46t-6.36-6.46V93.7h4.43v3.64c0,1.39.64,2.09,1.92,2.09h0c1.28,0,1.93-.71,1.93-2.09Z"/></g></g></g></g></svg>