<svg xmlns="http://www.w3.org/2000/svg" viewBox="0 0 136.9 104.88"><defs><style>.cls-1{fill:#f7f8f8;}</style></defs><title>day2-logo</title><g id="レイヤー_2" data-name="レイヤー 2"><g id="レイヤー_1-2" data-name="レイヤー 1"><g id="DAY2"><g id="DAY2-2" data-name="DAY2"><path class="cls-1" d="M0,1.1H15q12.95,0,13,14.19V54.37q0,14.13-13.57,14.17H0Zm9.73,9.59V59H14q4.23,0,4.23-4.58V15.29q0-4.6-4.23-4.6Z"/><path class="cls-1" d="M63.31,44.61l3.16,23.93H56.64l-1.89-14.3H44.82l-1.93,14.3H33.1l3.16-23.82L43.14,1.1H56.47Zm-9.83,0-3.71-28-3.71,28Z"/><path class="cls-1" d="M79.53,1.1l6.64,26.29L92.8,1.1h10.31L91.32,39.35l-.27.83V68.54H81.32V40.18L81,39.35,69.22,1.1Z"/><path class="cls-1" d="M109,54.07Q109,45,118,38.46t9.14-11V14.2q0-4.57-4.19-4.58h-.07q-4.23,0-4.23,4.58v9H109v-9Q109,0,122.91,0t14,14.2V27.67q0,9.27-9.11,15.81t-9.11,11.41V59H136.9v9.59H109Z"/><path class="cls-1" d="M1,97.79q0-4.16,4.14-7.12t4.17-5v-6c0-1.39-.64-2.08-1.92-2.08h0c-1.28,0-1.93.69-1.93,2.08v4.13H1V79.6q0-6.46,6.36-6.47t6.38,6.47v6.15c0,2.82-1.38,5.23-4.15,7.21s-4.16,3.71-4.16,5.21V100h8.31v4.37H1Z"/><path class="cls-1" d="M26.52,73.61l-6.13,30.78H16.67L22.8,73.61Z"/><path class="cls-1" d="M38.09,73.63V100h4.16v4.37H29.5V100h4.15V78H29.5V73.63Z"/><path class="cls-1" d="M54.63,79.6c0-1.38-.64-2.07-1.92-2.08h0c-1.27,0-1.91.69-1.91,2.08v4.13H46.32V79.6q0-6.45,6.37-6.46t6.38,6.46V85a4.42,4.42,0,0,1-2.43,4.28,4.42,4.42,0,0,1,2.43,4.28v4.91q0,6.47-6.38,6.46t-6.37-6.46V94.29h4.44v4.13c0,1.39.64,2.08,1.91,2.08h0c1.28,0,1.92-.7,1.92-2.08V93.51c0-1.12-.23-1.78-.7-2a3.3,3.3,0,0,0-1.16-.16H51.31V87h1.8a1.81,1.81,0,0,0,.94-.19c.39-.22.58-.85.58-1.88Z"/><path class="cls-1" d="M61.89,91.21V87.55H72.65v3.66Z"/><path class="cls-1" d="M77.4,97.79q0-4.16,4.14-7.12t4.17-5v-6c0-1.39-.64-2.08-1.91-2.08h0c-1.29,0-1.93.69-1.93,2.08v4.13H77.4V79.6q0-6.46,6.37-6.47t6.38,6.47v6.15C90.15,88.57,88.76,91,86,93s-4.15,3.71-4.15,5.21V100h8.31v4.37H77.4Z"/><path class="cls-1" d="M103,73.61l-6.13,30.78H93.13l6.13-30.78Z"/><path class="cls-1" d="M114.54,73.63V100h4.16v4.37H106V100h4.16V78H106V73.63Z"/><path class="cls-1" d="M127.21,87.08A4.43,4.43,0,0,1,130.27,86c.22,0,.45,0,.67,0a5.06,5.06,0,0,1,3.34,1.52q1.25,1.33,1.24,4.78v6.12q0,6.47-6.38,6.46t-6.36-6.46V79.6q0-6.46,6.36-6.47t6.38,6.47v4.13h-4.43V79.6c0-1.39-.65-2.08-1.93-2.08h0c-1.28,0-1.92.69-1.92,2.08Zm3.88,5.22c0-1.09-.23-1.74-.69-1.92a3,3,0,0,0-1.21-.18l-.42,0c-1,0-1.56.74-1.56,2.08v6.12c0,1.39.65,2.08,1.93,2.08s2-.69,2-2.08Z"/></g></g></g></g></svg>