<svg xmlns="http://www.w3.org/2000/svg" viewBox="0 0 237.09 314"><defs><style>.cls-1{fill:#010100;}.cls-2{fill:#fff;}.cls-3{fill:#f7f8f8;}.cls-4{fill:#41b9b3;}</style></defs><title>アセット 10</title><g id="レイヤー_2" data-name="レイヤー 2"><g id="レイヤー_1-2" data-name="レイヤー 1"><path class="cls-1" d="M173.14,270.21H69.22l-1,0a14.77,14.77,0,0,0-2.3.19,7.53,7.53,0,0,0-2.17.69,7.23,7.23,0,0,0-1.85,1.29,6.65,6.65,0,0,0-1.35,1.77,6.84,6.84,0,0,0-.71,2.08,13.54,13.54,0,0,0-.21,2.2c0,.33,0,.67,0,1v25.31c0,.34,0,.67,0,1a13.42,13.42,0,0,0,.21,2.19,6.8,6.8,0,0,0,2.06,3.85,7,7,0,0,0,1.85,1.29,7.87,7.87,0,0,0,2.17.7,17.69,17.69,0,0,0,2.3.19H175.43a17.53,17.53,0,0,0,2.29-.19,7.94,7.94,0,0,0,2.18-.7,6.83,6.83,0,0,0,1.85-1.29,7,7,0,0,0,1.35-1.76,6.8,6.8,0,0,0,.71-2.09,13.42,13.42,0,0,0,.21-2.19c0-.34,0-.67,0-1s0-.79,0-1.2V280.65c0-.4,0-.8,0-1.2s0-.67,0-1a13.54,13.54,0,0,0-.21-2.2,6.84,6.84,0,0,0-.71-2.08,7.13,7.13,0,0,0-3.2-3.06,7.59,7.59,0,0,0-2.18-.69,14.64,14.64,0,0,0-2.29-.19l-1.05,0Z"/><path class="cls-2" d="M69.22,313h-1a15.32,15.32,0,0,1-2.14-.18,6.52,6.52,0,0,1-1.89-.6,6,6,0,0,1-1.6-1.11,5.82,5.82,0,0,1-1.17-1.53,6.16,6.16,0,0,1-.62-1.81,12.92,12.92,0,0,1-.19-2.05c0-.24,0-1,0-1v-25.3s0-.75,0-1a12.71,12.71,0,0,1,.19-2.05,6.13,6.13,0,0,1,.62-1.82,5.78,5.78,0,0,1,1.16-1.53A6,6,0,0,1,64.16,272a6.84,6.84,0,0,1,1.89-.6,15.32,15.32,0,0,1,2.14-.18H175.42a15,15,0,0,1,2.12.18,7,7,0,0,1,1.91.6,6.12,6.12,0,0,1,3.38,4.45,14.48,14.48,0,0,1,.19,2.07c0,.31,0,.64,0,1s0,.81,0,1.2v22.91c0,.4,0,.79,0,1.18s0,.68,0,1a13.81,13.81,0,0,1-.19,2,6.39,6.39,0,0,1-.62,1.83,5.85,5.85,0,0,1-1.16,1.51,6.15,6.15,0,0,1-1.6,1.12,6.64,6.64,0,0,1-1.91.6,15.32,15.32,0,0,1-2.14.18H69.22Z"/><g id="_Group_" data-name=" Group "><g id="_Group_2" data-name=" Group 2"><path id="_Path_" data-name=" Path " class="cls-1" d="M88.15,292a5.56,5.56,0,0,1,2.8-4.73,6.12,6.12,0,0,0-4.75-2.46c-2-.2-3.93,1.15-5,1.15s-2.6-1.13-4.29-1.1A6.35,6.35,0,0,0,71.65,288c-2.3,3.81-.59,9.42,1.61,12.5,1.11,1.51,2.39,3.19,4.08,3.13s2.26-1,4.26-1,2.55,1,4.27,1,2.88-1.51,3.94-3A11.88,11.88,0,0,0,91.62,297,5.44,5.44,0,0,1,88.15,292Z"/><path id="_Path_2" data-name=" Path 2" class="cls-1" d="M84.9,282.77a5.37,5.37,0,0,0,1.33-4,6,6,0,0,0-3.82,1.89,5.18,5.18,0,0,0-1.36,3.83A5,5,0,0,0,84.9,282.77Z"/></g></g><path class="cls-1" d="M106.64,288.33H102l-1.12,3.15h-2l4.39-11.64h2l4.39,11.64h-2Zm-4.15-1.45h3.67l-1.81-5.1h0Z"/><path class="cls-1" d="M119.22,287.24c0,2.63-1.47,4.33-3.69,4.33a3,3,0,0,1-2.79-1.49h0v4.21h-1.82V283h1.76v1.41h0a3.17,3.17,0,0,1,2.82-1.5C117.74,282.91,119.22,284.61,119.22,287.24Zm-1.87,0c0-1.72-.92-2.85-2.34-2.85s-2.32,1.15-2.32,2.85.93,2.85,2.32,2.85,2.34-1.12,2.34-2.85Z"/><path class="cls-1" d="M129,287.24c0,2.63-1.48,4.33-3.7,4.33a3,3,0,0,1-2.79-1.49h0v4.21h-1.82V283h1.76v1.41h0a3.18,3.18,0,0,1,2.83-1.5C127.49,282.91,129,284.61,129,287.24Zm-1.87,0c0-1.72-.93-2.85-2.34-2.85s-2.33,1.15-2.33,2.85.94,2.85,2.33,2.85S127.11,289,127.11,287.24Z"/><path class="cls-1" d="M135.42,288.24c.14,1.15,1.31,1.91,2.91,1.91s2.63-.76,2.63-1.8-.66-1.44-2.24-1.81l-1.57-.37c-2.23-.51-3.27-1.51-3.27-3.13,0-2,1.83-3.39,4.42-3.39s4.33,1.38,4.39,3.39h-1.83c-.11-1.17-1.12-1.87-2.58-1.87s-2.47.71-2.47,1.74c0,.83.64,1.31,2.21,1.68l1.34.32c2.49.56,3.53,1.52,3.53,3.22,0,2.18-1.82,3.54-4.7,3.54-2.69,0-4.51-1.33-4.63-3.43Z"/><path class="cls-1" d="M146.81,281v2h1.69v1.37h-1.69v4.68c0,.73.34,1.07,1.08,1.07l.6,0v1.37a5.66,5.66,0,0,1-1,.08c-1.8,0-2.49-.65-2.49-2.29v-4.87H143.7V283H145v-2Z"/><path class="cls-1" d="M149.47,287.24a4.21,4.21,0,1,1,4.21,4.34A4,4,0,0,1,149.47,287.24Zm6.56,0c0-1.83-.88-2.91-2.35-2.91s-2.35,1.08-2.35,2.91.87,2.91,2.35,2.91S156,289.08,156,287.24Z"/><path class="cls-1" d="M159.38,283h1.73v1.44h0a2.09,2.09,0,0,1,2.13-1.53,3.18,3.18,0,0,1,.62.06v1.63a2.5,2.5,0,0,0-.82-.1,1.79,1.79,0,0,0-1.9,1.68,1.22,1.22,0,0,0,0,.27v5h-1.82Z"/><path class="cls-1" d="M172.3,289a3.54,3.54,0,0,1-3.82,2.59,3.94,3.94,0,0,1-4.18-4.3c0-2.66,1.61-4.39,4.1-4.39s4,1.61,4,4.19v.59h-6.26v.11a2.24,2.24,0,0,0,2.09,2.39h.29a2,2,0,0,0,2-1.19Zm-6.15-2.53h4.43a2.09,2.09,0,0,0-2-2.16h-.17a2.2,2.2,0,0,0-2.25,2.14Z"/><path class="cls-1" d="M101.23,303.94l.08-.89a3.92,3.92,0,0,0,1.08.16c.34,0,.47,0,.63-.25a4.83,4.83,0,0,0,.49-2.53c0-.93-.3-1.2-1.06-1.2l-.59,0a14.68,14.68,0,0,1-2,4.52L99,303.3a11.88,11.88,0,0,0,1.88-3.95,17.19,17.19,0,0,0-1.75.27l-.2-.9c.66-.12,1.45-.22,2.18-.28a18.55,18.55,0,0,0,.33-2.07l1.06.11c-.1.63-.22,1.26-.37,1.88h.42a1.77,1.77,0,0,1,2,2,6.15,6.15,0,0,1-.62,3.06,1.33,1.33,0,0,1-1.29.66A6.36,6.36,0,0,1,101.23,303.94Zm3.47-5.55.78-.51a5.69,5.69,0,0,1,1.84,3.82l-1,.15A4.75,4.75,0,0,0,104.7,298.39Z"/><path class="cls-1" d="M110.89,304.09l-.21-.93c.27,0,.62,0,.84,0,2.13,0,2.94-.58,2.94-1.43,0-.68-.47-1.07-1.5-1.07a4.69,4.69,0,0,0-2.95,1.38l-.83-.35a5.85,5.85,0,0,1,.92-3.87l1,.3a3.93,3.93,0,0,0-.81,2.68,5.65,5.65,0,0,1,2.94-1c1.44,0,2.33.71,2.33,1.87,0,1.46-1.2,2.36-4.1,2.36Zm-1-6.85.27-.9a31.86,31.86,0,0,1,4.23.92l-.26.9a25.42,25.42,0,0,0-4.24-.92Z"/><path class="cls-1" d="M118.63,303.38a6.75,6.75,0,0,0,2.89-1.8,12.35,12.35,0,0,0-2-1.3l.59-.71a13.31,13.31,0,0,1,2.05,1.24,6.43,6.43,0,0,0,1-2.38h-2.74a10.7,10.7,0,0,1-2.35,2.59l-.78-.65a10,10,0,0,0,3-3.94l1,.24c-.12.28-.23.58-.37.86h2.67l.76.34a7.9,7.9,0,0,1-5.16,6.31Zm4.54-7.2.6-.28a6.15,6.15,0,0,1,.77,1.27l-.68.3A5.34,5.34,0,0,0,123.17,296.18Zm1.35-.1.61-.28a7.16,7.16,0,0,1,.79,1.3l-.68.28a5.52,5.52,0,0,0-.72-1.3Z"/><path class="cls-1" d="M129.23,304.14l-.55-.84a4.36,4.36,0,0,0,3.79-4.54H128v2.07h-1.09v-2.95h2.7v-1.51h1.09v1.51h2l1,.27C133.52,301.08,132.5,303.31,129.23,304.14Z"/><path class="cls-1" d="M135.75,298l.6-.84a13.47,13.47,0,0,1,2.65,1.54l-.69.88A13.47,13.47,0,0,0,135.75,298ZM136,303a8.38,8.38,0,0,0,6.21-4.29l.71.76a9.05,9.05,0,0,1-6.51,4.48Z"/><path class="cls-1" d="M151.7,303.53h-6.77V297.4h6.77ZM146,298.35v4.23h4.63v-4.23Z"/><path class="cls-1" d="M161.39,300.78h-7.61v-1h7.61Z"/><path class="cls-1" d="M164,296.4h1.07V299a33,33,0,0,1,4.11,2l-.6.9a27,27,0,0,0-3.51-1.8v4H164Zm2.53.55.64-.28a6.53,6.53,0,0,1,.76,1.4l-.7.3A5.86,5.86,0,0,0,166.51,297Zm1.23-.44.64-.29a6.79,6.79,0,0,1,.81,1.4l-.7.3a6.59,6.59,0,0,0-.75-1.41Z"/><path class="cls-3" d="M4,233.41c0-1.71,0-2.59.11-4.16A18.1,18.1,0,0,1,1.68,233,17.59,17.59,0,0,0,0,228.9a29.35,29.35,0,0,0,6.65-13.83l4,1c-.21.56-.21.56-.53,1.57a46.31,46.31,0,0,1-2.62,6.48v19.25a37.05,37.05,0,0,0,.17,4.2H3.78a37,37,0,0,0,.21-4.2Zm28.91-12a25,25,0,0,0-3.08-.14,20.92,20.92,0,0,1-4.3,5.53,23.57,23.57,0,0,0,8.29,2.38,13.82,13.82,0,0,0-1.47,3.6c-4.51-1.12-7.17-2.2-9.66-3.88a29.89,29.89,0,0,1-7.77,3.25,12.12,12.12,0,0,0-1.54-3,23.19,23.19,0,0,0,6.72-2.34,17.38,17.38,0,0,1-2.83-3.4,21.63,21.63,0,0,1-2.8,2.77,13.33,13.33,0,0,0-1.72-1.54v14.1a20.49,20.49,0,0,0,.18,3.57H9.14a19.77,19.77,0,0,0,.21-3.64V224.42a26.32,26.32,0,0,0-.14-3.26h3.67c-.07.6-.1,1-.14,1.89a16.84,16.84,0,0,0,5.43-8.12l3.78.74c-.56,1.15-.77,1.57-1.16,2.34H29a22.33,22.33,0,0,0,3.92-.21Zm.25,16.87c-.42.35-.84.66-1.37,1.15-5,4.41-9.45,6.48-17.46,8.19a13.91,13.91,0,0,0-1.82-3.15A34.68,34.68,0,0,0,25.76,240a14.63,14.63,0,0,0,4.45-3.81Zm-7.91-5.95c-.32.21-.32.21-1.26.87-2.1,1.51-4.66,2.59-8.79,3.75a9.66,9.66,0,0,0-1.75-2.73c4.38-.88,7.42-2.14,9.21-3.78Zm3.88,2.76a31.26,31.26,0,0,1-13.68,6.83A9.38,9.38,0,0,0,13.76,239c5.32-1,10.64-3.54,12.42-5.88Zm-9.66-13.82A14.41,14.41,0,0,0,22.79,225,12.35,12.35,0,0,0,26,221.27Z"/><path class="cls-3" d="M40.53,237.93a34.15,34.15,0,0,0-4.27.21v-3.89a28.94,28.94,0,0,0,4.24.25H50v-.25a16.17,16.17,0,0,0-.11-1.92h1.51a18.51,18.51,0,0,0,4.13-2.84H45.92c-1.43,0-2.38,0-3.5.14v-3.5a25.46,25.46,0,0,0,3.54.18H57.54a16.35,16.35,0,0,0,2.66-.14l1.93,2.13c-.6.49-.6.49-1.26,1a48.9,48.9,0,0,1-7,5.11v0H63a28.1,28.1,0,0,0,4.31-.25v3.89a34.63,34.63,0,0,0-4.34-.21h-9.1v6.12a3.38,3.38,0,0,1-.46,2.21c-.59.87-1.78,1.15-4.93,1.15-.46,0-1.61,0-3.43-.14a13.32,13.32,0,0,0-1.16-3.71,31.13,31.13,0,0,0,4.34.35c1.54,0,1.79-.1,1.79-.8v-5.18Zm1.79-17.29a20.49,20.49,0,0,0-2.63-4l3.54-1.05a26,26,0,0,1,3.18,5h3.71A20.11,20.11,0,0,0,48,216.23l3.64-1A28.1,28.1,0,0,1,54,220.64h3a23.5,23.5,0,0,0,2.87-5.25l3.78,1.05a37.56,37.56,0,0,1-2.63,4.2h1.58c2.38,0,3,0,4.3-.14a22.73,22.73,0,0,0-.14,2.9v3.26a20.35,20.35,0,0,0,.18,2.66H63.14v-5.43H40.32v5.43H36.5a14.45,14.45,0,0,0,.18-2.7V223.4a22,22,0,0,0-.14-2.9,33.75,33.75,0,0,0,4.13.14Z"/><path class="cls-3" d="M89.15,222.6a24.11,24.11,0,0,1-4.06,5.21,9.22,9.22,0,0,0-2.8-2.27,22.72,22.72,0,0,0,1.78-1.82c-.77,0-1.43-.07-2.59-.07H77.81v1.15c0,1.09,0,1.09-.11,2.56h3.5a24.55,24.55,0,0,0,2.8-.11c-.1,1.05-.1,1.05-.14,5.95-.07,5.32-.45,9.38-1,11.2s-1.75,2.42-4.48,2.42c-.53,0-.91,0-1.82-.07a12.41,12.41,0,0,0-.7-3.78,9.72,9.72,0,0,0,2.41.31c1.12,0,1.3-.28,1.58-2.34a97.48,97.48,0,0,0,.45-10.19H77.53a40.18,40.18,0,0,1-1.3,9.31,21.06,21.06,0,0,1-3.5,7.49A11,11,0,0,0,70,244.26c1.82-2.41,2.87-5.18,3.5-9.27a72.06,72.06,0,0,0,.7-11.34h-.38a17.44,17.44,0,0,0-3.09.17V220a17.45,17.45,0,0,0,3.44.21h2.2V218.4a19,19,0,0,0-.21-3.08h4.13a18.55,18.55,0,0,0-.17,3v1.89h1.4a19.51,19.51,0,0,0,3.15-.17V223a19.38,19.38,0,0,0,3.78-7.77l3.88.74a14,14,0,0,0-.66,1.47c-.39.91-.46,1.08-.74,1.75h8.3a24.85,24.85,0,0,0,3.6-.21v3.78a29.18,29.18,0,0,0-3.43-.14H97.09l2.49,2.1c-.53.38-.63.45-1.26.94l-2.59,1.93a25.71,25.71,0,0,0,.7,4.34,16.66,16.66,0,0,0,4.09-3.89l2.38,2.7a37.17,37.17,0,0,1-5.32,4.62,20.1,20.1,0,0,0,5.85,8.15,12.38,12.38,0,0,0-2.28,3.85,23.21,23.21,0,0,1-6.4-9.24,32,32,0,0,1-2.1-8.61,13.77,13.77,0,0,1-1.47.84v13.44a35.08,35.08,0,0,0,.17,3.61H87.29a24.72,24.72,0,0,0,.21-3.61V232.19c-.84.42-1.43.7-1.75.84a10.5,10.5,0,0,0-1.68-3.4,34.92,34.92,0,0,0,7.14-3.43,34.32,34.32,0,0,0,5.15-3.6Z"/><path class="cls-3" d="M110.6,237c0-1.47,0-1.68.07-4.06a17.35,17.35,0,0,1-3.18,3,16.36,16.36,0,0,0-1.76-3.74c3.68-2.38,7.29-6.23,8.62-9.24l3.29,2.17a11.6,11.6,0,0,0-1.16,1.54c-.8,1.15-1.12,1.61-2,2.73v13.79a29.38,29.38,0,0,0,.25,4.41h-4.34a31.24,31.24,0,0,0,.24-4.45Zm6.51-19.57c-.38.42-.38.42-1,1.19a33.33,33.33,0,0,1-8,7,16.56,16.56,0,0,0-2.2-3.29,22,22,0,0,0,6.26-4.79,12.2,12.2,0,0,0,1.68-2.45Zm4.73,12a37.32,37.32,0,0,0-4.31.21v-3.92a36,36,0,0,0,4.31.21h11.9a30.8,30.8,0,0,0,4.27-.21v3.92a36.43,36.43,0,0,0-4.17-.21h-1.5v13.93c0,3-1,3.75-5.25,3.75-1.19,0-2.24,0-3.89-.11a14.24,14.24,0,0,0-1-3.92,40.07,40.07,0,0,0,4.76.39c1.4,0,1.57-.07,1.57-.84v-13.2Zm-2.91-12.6a30.06,30.06,0,0,0,4.1.21h9.45a29.66,29.66,0,0,0,4-.21v3.89a34.49,34.49,0,0,0-3.92-.21H123a36,36,0,0,0-4.1.21Z"/><path class="cls-3" d="M157.85,225a17.19,17.19,0,0,0-.14,2.83c-.14,6-1.08,9.35-3.46,12.39-2.1,2.7-4.66,4.48-9,6.3a12.37,12.37,0,0,0-2.77-4,16.23,16.23,0,0,0,6.13-3c3.57-2.84,4.69-5.85,4.69-12.46a8.8,8.8,0,0,0-.18-2.1Zm14.21-4.41a9.62,9.62,0,0,0-1.4,2.45,22,22,0,0,1-5.39,7,21.54,21.54,0,0,1-4.2,2.91,11.77,11.77,0,0,0-3.15-3.19,16,16,0,0,0,5.11-3.22,14.51,14.51,0,0,0,3.33-4.44H148a32.94,32.94,0,0,0-4.76.21v-4.38a27.94,27.94,0,0,0,4.83.28h18.27a9.7,9.7,0,0,0,3.4-.31Z"/><path class="cls-3" d="M198.66,219.24c1.05,0,1.47,0,2.07-.07a4.12,4.12,0,1,1,3.36,4c-2.84,11.45-9,18.59-20.09,23.21a13,13,0,0,0-3.08-4.17c9.69-3,16-9.52,18.27-18.83H182.53a25.71,25.71,0,0,0-4.41.21V219a23.88,23.88,0,0,0,4.48.25Zm3.82-.11a2.29,2.29,0,1,0,4.58,0,2.29,2.29,0,0,0-4.58,0Z"/><path class="cls-3" d="M221.2,217.1a17.82,17.82,0,0,0-.14,3.15v9.66a16.86,16.86,0,0,0,.14,3.08h-4.79a26.33,26.33,0,0,0,.17-3.15v-9.62a21.32,21.32,0,0,0-.14-3.15Zm15.89,0a16.68,16.68,0,0,0-.17,3.25v4.73c0,5.46-.28,8.4-.91,10.6a13.44,13.44,0,0,1-6.9,8.16,29.26,29.26,0,0,1-6.82,2.69,11.94,11.94,0,0,0-2.45-4.16,19,19,0,0,0,7.56-2.8c3.29-2.17,4.44-4.31,4.83-8.93.14-1.5.17-3,.17-5.84v-4.38a18.5,18.5,0,0,0-.17-3.32Z"/><path class="cls-3" d="M121.71,189.24c-14.41,0-28.81.06-43.22,0a92,92,0,0,1-19.7-1.95,38.42,38.42,0,0,1-16.65-8.37,38.87,38.87,0,0,1-11.56-16.42,52.13,52.13,0,0,1-2.65-12.24,192.55,192.55,0,0,1-.74-21.75q0-37.17,0-74.33A116.89,116.89,0,0,1,28.67,34,39.8,39.8,0,0,1,62.24,1.33,96.29,96.29,0,0,1,74.35.22C90-.18,105.56.1,121.16.05q22-.08,44,0A92,92,0,0,1,184.81,2a38.42,38.42,0,0,1,16.65,8.37A38.87,38.87,0,0,1,213,26.82,51.39,51.39,0,0,1,215.66,39a189.54,189.54,0,0,1,.75,21.84q0,38.41,0,76.82a91.14,91.14,0,0,1-2,20.16,38.41,38.41,0,0,1-8.67,16.9,39,39,0,0,1-16.14,11.2,51.13,51.13,0,0,1-12.05,2.61,189.72,189.72,0,0,1-21.85.76h-34Z"/><polygon class="cls-4" points="74.37 81.48 81.47 81.48 99.77 49.68 92.67 49.68 74.37 81.48"/><polygon class="cls-4" points="95.8 61.59 102.9 61.59 109.77 49.68 102.67 49.68 95.8 61.59"/><polyline class="cls-4" points="111.78 55.44 102.93 70.83 110.03 70.83 118.88 55.44"/><polygon class="cls-4" points="120.68 70.83 113.58 70.83 104.74 55.43 111.84 55.43 120.68 70.83"/><rect class="cls-4" x="86.76" y="61.59" width="6.15" height="31.27"/><rect class="cls-4" x="95.8" y="64.48" width="6.15" height="28.38"/><polygon class="cls-4" points="124.18 55.44 106.44 55.44 102.89 61.59 120.64 61.59 124.18 55.44"/><polygon class="cls-4" points="120.68 72.36 106.48 72.37 102.93 78.52 117.14 78.52 120.68 72.36"/><polygon class="cls-4" points="120.68 86.71 106.48 86.71 102.93 92.86 117.14 92.86 120.68 86.71"/><polygon class="cls-4" points="120.68 79.53 106.48 79.54 102.93 85.69 117.14 85.69 120.68 79.53"/><polygon class="cls-4" points="156.4 64.68 163.5 64.68 168.83 55.44 161.73 55.44 156.4 64.68"/><polygon class="cls-4" points="168.83 55.45 165.28 61.6 125.64 61.59 129.19 55.44 168.83 55.45"/><polygon class="cls-4" points="166.1 74.91 162.56 81.06 122.92 81.05 126.47 74.89 166.1 74.91"/><polygon class="cls-4" points="134.24 64.68 134.23 64.68 137.78 70.83 149.58 70.84 153.13 64.69 134.24 64.68"/><polygon class="cls-4" points="143.69 81.05 143.69 81.05 140.14 74.9 146.03 64.68 153.13 64.68 143.69 81.05"/><polygon class="cls-4" points="123.83 64.68 130.94 64.68 136.26 55.44 129.16 55.44 123.83 64.68"/><polygon class="cls-4" points="153.15 85.11 146.05 85.11 140.14 74.9 143.69 68.75 153.15 85.11"/><polygon class="cls-4" points="153.15 85.11 146.05 85.11 141.59 92.87 148.7 92.86 153.15 85.11"/><polygon class="cls-4" points="147.24 92.86 143.69 86.71 136.59 86.72 140.14 92.87 147.24 92.86"/><polygon class="cls-4" points="149.31 58.95 156.41 58.95 161.71 49.75 154.61 49.75 149.31 58.95"/><polygon class="cls-4" points="138.83 49.75 145.93 49.75 149.78 56.44 142.68 56.44 138.83 49.75"/><polygon class="cls-4" points="129.19 49.75 136.29 49.75 140.14 56.44 133.03 56.44 129.19 49.75"/><rect class="cls-4" x="79.74" y="101.75" width="40.11" height="6.15"/><rect class="cls-4" x="102.57" y="120.72" width="6.15" height="18.45"/><rect class="cls-4" x="79.74" y="133.02" width="8.67" height="6.15"/><polygon class="cls-4" points="79.74 124.25 86.84 124.25 103.07 96.12 95.97 96.12 79.74 124.25"/><polygon class="cls-4" points="99.36 107.9 106.47 107.9 113.25 96.12 106.15 96.12 99.36 107.9"/><polygon class="cls-4" points="81.32 139.17 88.42 139.17 104.39 111.49 97.29 111.49 81.32 139.17"/><polygon class="cls-4" points="91.45 139.17 98.56 139.17 119.84 102.27 112.74 102.27 91.45 139.17"/><polygon class="cls-4" points="107.19 129.54 114.29 129.54 119.08 121.22 111.98 121.22 107.19 129.54"/><polygon class="cls-4" points="102.1 120.72 109.2 120.72 119.84 139.17 112.74 139.17 102.1 120.72"/><polygon class="cls-4" points="83.87 117.15 87.42 111 104.64 111.01 101.09 117.16 83.87 117.15"/><rect class="cls-4" x="133.42" y="111" width="6.15" height="28.21"/><polygon class="cls-4" points="141.07 96.12 148.17 96.12 130.1 127.4 123 127.4 141.07 96.12"/><polygon class="cls-4" points="131.49 96.12 138.59 96.12 130.1 110.82 123 110.82 131.49 96.12"/><rect class="cls-4" x="150.72" y="111.04" width="6.15" height="28.17"/><rect class="cls-4" x="144.57" y="133.06" width="12.3" height="6.15"/><rect class="cls-4" x="141.49" y="111.04" width="24.6" height="6.15"/><polygon class="cls-4" points="143.83 107.94 147.38 101.79 161.54 101.79 161.54 107.94 143.83 107.94"/><path class="cls-4" d="M177.74,150.59H65.45V38.3H177.74ZM71.31,144.73H171.89V44.16H71.31Z"/></g></g></svg>