<svg xmlns="http://www.w3.org/2000/svg" viewBox="0 0 49.84 49.84"><defs><style>.cls-1{fill:#231916;}.cls-2{fill:#fff;fill-rule:evenodd;}</style></defs><title>logo-amidc</title><g id="レイヤー_2" data-name="レイヤー 2"><g id="レイヤー_1-2" data-name="レイヤー 1"><circle class="cls-1" cx="24.92" cy="24.92" r="24.92" transform="translate(-6.58 9.11) rotate(-18.35)"/><path class="cls-2" d="M38,25.42l-1.33.52c-.41.15-.82.31-1.23.44a.46.46,0,0,0-.33.32c-.16.44-.32.88-.46,1.33-.1.28-.14.59-.23.88-.14.44-.32.87-.47,1.31,0,.09-.06.19-.09.28l-.14.32-.38-.43a.66.66,0,0,1,.09-.68.23.23,0,0,0,0-.12,21.37,21.37,0,0,1,.5-2.1c0-.16.07-.32.12-.51a1,1,0,0,0-.24,0l-.78.28a2.18,2.18,0,0,1-1.55,0,1.15,1.15,0,0,1-.56-.46c-.11-.18-.23-.34-.37-.54l-.63.24a7.93,7.93,0,0,1-1.45.47.89.89,0,0,1-1-.36L27,26a3.4,3.4,0,0,0-.73.38c-.28.14-.55.31-.83.44a.85.85,0,0,1-1-.23l-.2-.24A1,1,0,0,1,24,25.5a1.07,1.07,0,0,0,0-.18.84.84,0,0,0-.44.22c-.31.22-.61.44-.93.65a.43.43,0,0,1-.61-.07,2.93,2.93,0,0,1-.34-.43.79.79,0,0,1,0-.81,3.09,3.09,0,0,0,.3-.77c-.2.11-.36.17-.49.26l-1.56,1.17a10.66,10.66,0,0,0-.88.76,6.73,6.73,0,0,0-.74.77c-.23.27-.45.16-.6,0a1.9,1.9,0,0,0-.19-.21.4.4,0,0,1-.07-.59l1.18-2.18a2.15,2.15,0,0,0,.11-.36l-.06-.05a6.45,6.45,0,0,0-.54.37c-.4.34-.79.69-1.17,1.06s-.78.77-1.18,1.15-.66.64-1,.94a.61.61,0,0,1-.92-.09s0-.08-.06-.1a.85.85,0,0,1-.31-1.13s0-.1,0-.16-.1,0-.12,0L11.9,26.75l-1.44,1.08c-.34.26-.66.52-1,.75a3.32,3.32,0,0,1-.71.4,1.08,1.08,0,0,1-1.08-.24c-.08-.06-.14-.15-.22-.22a1.16,1.16,0,0,1-.32-1.28A4,4,0,0,1,7.79,26a8.87,8.87,0,0,1,1.54-1.64,19.93,19.93,0,0,1,2.42-1.66,6,6,0,0,1,1.5-.74,1.06,1.06,0,0,1,1.06.22l.8.73c.37,0,.62.24.87.49.1.1,0,.23,0,.34-.19.26-.39.52-.57.79s-.43.72-.64,1.08c0,.07-.14.16,0,.23s.15,0,.2-.08c.32-.3.62-.62.95-.91a14,14,0,0,1,2.63-2.16q.26-.15.51-.27a.38.38,0,0,1,.43.06c.15.14.32.25.47.39a.4.4,0,0,1,.12.47c-.13.33-.23.67-.35,1,.14,0,.25,0,.37-.12a9.08,9.08,0,0,1,1.44-.85,3.39,3.39,0,0,1,.39-.18.84.84,0,0,1,.44,0,1.41,1.41,0,0,1,.69.54.57.57,0,0,1,.05.58.74.74,0,0,0-.07.41l.44-.3L25.31,23c.41-.29.41-.28.77.05l.09.08c.28.28.28.31,0,.63l-.83,1.05a4.71,4.71,0,0,0-.54,1c.08,0,.13,0,.17,0,.67-.37,1.35-.72,2-1.11a4,4,0,0,0,.68-.56,1.21,1.21,0,0,1,.48-.31c.14-.05.26-.15.39-.21s.17-.1.22-.08a1.12,1.12,0,0,1,.68.52.26.26,0,0,1-.09.38,3.21,3.21,0,0,0-.95.92,4.5,4.5,0,0,0-.36.53.66.66,0,0,0,0,.15.87.87,0,0,0,.6-.09l2.22-1c.35-.15.7-.27,1.05-.42a5.32,5.32,0,0,0,.61-.35l.84-.55a2.77,2.77,0,0,0,.29-.22.69.69,0,0,1,1,0,4.37,4.37,0,0,0,.43.32c.36-.8.67-1.6,1-2.39s.62-1.61.94-2.42c0,0,0,0,0,0,.28.17.56.35.62.7a.51.51,0,0,1,0,.3c-.2.52-.41,1-.62,1.55-.3.73-.59,1.45-.88,2.18-.15.38-.3.76-.44,1.14a1.55,1.55,0,0,0-.07.23.26.26,0,0,0,.3,0l.76-.31L38,24.35a3.07,3.07,0,0,0,1.09-.6c.21-.2.34-.18.56,0a1.37,1.37,0,0,0,.18.16c.25.12.26.37.32.59s-.12.27-.33.3a.85.85,0,0,0-.57.26c-.2.25-.55.45-.46.86a7.3,7.3,0,0,0,3.34-.86,4.84,4.84,0,0,1,.46.33c.21.17.23.33,0,.51a1.85,1.85,0,0,1-.6.36c-.52.17-1,.31-1.58.45a4.2,4.2,0,0,1-1,.18A1.41,1.41,0,0,1,38,25.73ZM7.9,28.25a.56.56,0,0,0,.13,0c.36-.19.73-.36,1.07-.57s.59-.46.89-.68l1.61-1.16,1.25-.92,1.38-1.07a.46.46,0,0,0,.17-.23,2.75,2.75,0,0,0,0-.7c0-.28-.24-.37-.52-.33a3.92,3.92,0,0,0-1.22.54,12.46,12.46,0,0,0-1.19.75,11.38,11.38,0,0,0-1.61,1.25c-.29.29-.58.59-.85.91a5.32,5.32,0,0,0-1,1.53A.88.88,0,0,0,7.9,28.25Zm26.9-3.68a1.62,1.62,0,0,0-.24.08,9,9,0,0,1-1.43.59,2.22,2.22,0,0,0-.5.28A5.34,5.34,0,0,0,32,26a6.06,6.06,0,0,0-.43.44,1.5,1.5,0,0,0,.88-.1l1.84-.64c.06,0,.15,0,.18-.09A4,4,0,0,0,34.8,24.57Z"/><path class="cls-2" d="M30.13,20.11s.11,0,.14,0c.19.17.44.28.57.53a1,1,0,0,1,0,.65,12,12,0,0,1-.48,1.47c0,.06-.05.11-.07.16a.34.34,0,0,1-.13-.41c0-.12,0-.19-.09-.25a.43.43,0,0,1-.2-.52,8.55,8.55,0,0,0,.21-1.59S30.12,20.14,30.13,20.11Z"/></g></g></svg>