<svg xmlns="http://www.w3.org/2000/svg" viewBox="0 0 66.58 66.58"><defs><style>.cls-1{fill:none;}</style></defs><title>meal</title><g id="レイヤー_2" data-name="レイヤー 2"><g id="_" data-name="１"><g id="_1" data-name="1"><rect class="cls-1" width="66.58" height="66.58"/><path d="M44,13.92a2.73,2.73,0,0,0-2.6,1.9h0S36,28.86,36,35.36c0,4,3,6.16,5.26,7.28v12a1.16,1.16,0,0,0,1.15,1.15h3.1a1.17,1.17,0,0,0,1.17-1.15l0-38A2.74,2.74,0,0,0,44,13.92Z"/><path d="M30.74,13.92a1.91,1.91,0,0,0-1.91,1.75c0,.05,0,10.2,0,10.2a1.14,1.14,0,0,1-1.12,1,1.11,1.11,0,0,1-1.11-1.1V15.84A1.91,1.91,0,0,0,25,14a1.36,1.36,0,0,0-.29,0h0a1.36,1.36,0,0,0-.29,0,1.91,1.91,0,0,0-1.6,1.89v10a1.11,1.11,0,0,1-1.11,1.1,1.14,1.14,0,0,1-1.12-1s0-10.15,0-10.2a1.91,1.91,0,0,0-1.91-1.75,1.93,1.93,0,0,0-1.93,1.92V29.15a3.45,3.45,0,0,0,.93,2.49l2.46,3A6.68,6.68,0,0,1,22,39.28V54.06a1.83,1.83,0,0,0,1.83,1.83h1.71a1.83,1.83,0,0,0,1.83-1.83V39.28a6.68,6.68,0,0,1,1.89-4.67l2.46-3a3.45,3.45,0,0,0,.93-2.49V15.84A1.93,1.93,0,0,0,30.74,13.92Z"/></g></g></g></svg>