<svg xmlns="http://www.w3.org/2000/svg" viewBox="0 0 66.58 66.58"><defs><style>.cls-1{fill:none;}</style></defs><title>taxi</title><g id="レイヤー_2" data-name="レイヤー 2"><g id="_" data-name="１"><g id="_1" data-name="1"><rect class="cls-1" width="66.58" height="66.58"/></g><g id="バス"><path d="M40.83,21.08a.63.63,0,0,1-.63.63H37.64a.53.53,0,0,1-.54-.62l.42-2.93a.73.73,0,0,1,.71-.62h2a.63.63,0,0,1,.63.62Z"/><path d="M50,36.86A5.12,5.12,0,1,0,55.11,42,5.12,5.12,0,0,0,50,36.86Zm0,6.6A1.48,1.48,0,1,1,51.47,42,1.48,1.48,0,0,1,50,43.46Z"/><path d="M18.78,36.86A5.12,5.12,0,1,0,23.9,42,5.13,5.13,0,0,0,18.78,36.86Zm0,6.6A1.48,1.48,0,1,1,20.26,42,1.48,1.48,0,0,1,18.78,43.46Z"/><path d="M33.12,35.49c-.08.32-.62,2.2-.62,2.2h1.26s-.54-1.89-.62-2.2Z"/><path d="M59.09,32.23a9.11,9.11,0,0,1-5.2-2.87L49.82,24.5a4.43,4.43,0,0,0-3.54-1.74H29.39a4.5,4.5,0,0,0-2.89,1.06l-8.68,7.54c-1.41,1.26-13.45,1.69-13.45,6.79v.19a1.69,1.69,0,0,0-.92,1.51V41c0,.93.76,1.7,2.27,1.7h6.75a6,6,0,0,1,0-.73,6.35,6.35,0,1,1,12.7,0,6,6,0,0,1,0,.73H43.68a6,6,0,0,1,0-.73,6.35,6.35,0,1,1,12.7,0,6,6,0,0,1,0,.73h2.54c1.79,0,3.73-.49,3.73-2.86V36.46A4.32,4.32,0,0,0,59.09,32.23Zm-48.7,4-.78,1.17a1.74,1.74,0,0,1-1.29.7H6.25c-.46,0-.62-.31-.36-.69l.83-1.19A1.78,1.78,0,0,1,8,35.57h2C10.47,35.57,10.64,35.89,10.39,36.27Zm12.05-4.12L29,26.31a.68.68,0,0,1,.39-.13H37.2v6Zm8.11,3.54H29.09v4.08H28V35.69H26.5v-1h4.05Zm3.8,4.08-.43-1.34H32.34l-.4,1.34H30.79l1.67-5.09h1.43l1.65,5.09Zm6,0H39l-.91-1.49-.9,1.49h-1.3l1.56-2.56-1.56-2.56h1.3l.9,1.5.91-1.5h1.29l-1.55,2.56Zm1.83,0H41V34.68h1.14Zm-1.86-7.62v-6h6a.57.57,0,0,1,.5.25l4.06,5.28c.11.15.23.29.35.44Z"/></g></g></g></svg>