<svg xmlns="http://www.w3.org/2000/svg" viewBox="0 0 314.31 100.76"><defs><style>.cls-1{fill:#f7f8f8;}</style></defs><title>title</title><g id="レイヤー_2" data-name="レイヤー 2"><g id="レイヤー_1-2" data-name="レイヤー 1"><path class="cls-1" d="M214.93,96.58a6.73,6.73,0,0,1,3.34-4.19q2.8-1.74,3.08-3l.76-3.56a2.1,2.1,0,0,0,0-.41c0-.54-.3-.81-.91-.81h0a1.32,1.32,0,0,0-1.39,1.22l-.52,2.43H216.7l.51-2.43q.82-3.81,4.56-3.81c2.07,0,3.1.86,3.1,2.58a5.71,5.71,0,0,1-.15,1.23L224,89.49a6.73,6.73,0,0,1-3.35,4.25q-2.82,1.74-3.1,3.06l-.23,1.09h4.89l-.54,2.58h-7.51Z"/><polygon class="cls-1" points="233.02 82.35 225.56 100.47 223.37 100.47 230.83 82.35 233.02 82.35"/><polygon class="cls-1" points="239.83 82.36 236.53 97.89 238.97 97.89 238.43 100.47 230.92 100.47 231.47 97.89 233.91 97.89 236.67 84.93 234.23 84.93 234.77 82.36 239.83 82.36"/><path class="cls-1" d="M241.65,96.58A6.68,6.68,0,0,1,245,92.39c1.88-1.16,2.9-2.15,3.08-3l.76-3.56a2.1,2.1,0,0,0,0-.41c0-.54-.3-.81-.91-.81h0a1.33,1.33,0,0,0-1.39,1.22L246,88.3h-2.61l.52-2.43q.81-3.81,4.56-3.81,3.09,0,3.09,2.58a5.71,5.71,0,0,1-.15,1.23l-.76,3.62a6.78,6.78,0,0,1-3.36,4.25c-1.87,1.16-2.91,2.18-3.1,3.06L244,97.89h4.89l-.54,2.58h-7.5Z"/><path class="cls-1" d="M256.67,92.8l-1.53-1,.75-.77a4,4,0,0,1,2.81-1.42h.11a4,4,0,0,1,2.14,1,1.88,1.88,0,0,0,1.07.47.87.87,0,0,0,.59-.22l.83-.72,1.38,1.14L264,92A3.72,3.72,0,0,1,261.56,93h-.13a3.89,3.89,0,0,1-2.11-1,3.34,3.34,0,0,0-.88-.58h-.1a1.49,1.49,0,0,0-.91.55Z"/><path class="cls-1" d="M269.3,96.58a6.68,6.68,0,0,1,3.33-4.19q2.82-1.74,3.09-3l.75-3.56a1.58,1.58,0,0,0,0-.41c0-.54-.3-.81-.91-.81h0a1.32,1.32,0,0,0-1.39,1.22l-.52,2.43h-2.61l.51-2.43q.81-3.81,4.56-3.81,3.09,0,3.09,2.58a5.66,5.66,0,0,1-.14,1.23l-.77,3.62A6.77,6.77,0,0,1,275,93.74q-2.82,1.74-3.1,3.06l-.23,1.09h4.89l-.55,2.58h-7.5Z"/><polygon class="cls-1" points="287.38 82.35 279.93 100.47 277.74 100.47 285.2 82.35 287.38 82.35"/><polygon class="cls-1" points="294.2 82.36 290.89 97.89 293.34 97.89 292.79 100.47 285.29 100.47 285.83 97.89 288.28 97.89 291.04 84.93 288.6 84.93 289.14 82.36 294.2 82.36"/><path class="cls-1" d="M300,90.28a3.09,3.09,0,0,1,1.93-.66l.39,0a2.35,2.35,0,0,1,1.78.89,2.23,2.23,0,0,1,.32,1.29,7.22,7.22,0,0,1-.19,1.53l-.76,3.6q-.82,3.8-4.57,3.8c-2.06,0-3.09-.85-3.09-2.56a5.73,5.73,0,0,1,.15-1.24l2.36-11.08q.81-3.81,4.56-3.81,3.09,0,3.09,2.58a5.71,5.71,0,0,1-.15,1.23l-.52,2.43h-2.61l.52-2.43a2.1,2.1,0,0,0,0-.41c0-.54-.3-.81-.92-.81h0a1.32,1.32,0,0,0-1.38,1.22Zm1.62,3.07a2.82,2.82,0,0,0,.07-.59c0-.29-.08-.47-.24-.55a1.78,1.78,0,0,0-.69-.1h-.25q-.92,0-1.17,1.23l-.77,3.6a2.1,2.1,0,0,0,0,.41c0,.55.31.82.92.82a1.34,1.34,0,0,0,1.4-1.23Z"/><path class="cls-1" d="M19.53,94,19,100.47H16.37l.31-3.84H14l-1.33,3.84H10.05l2.21-6.4,4.33-11.71h3.59Zm-2.64,0,.6-7.53L14.9,94Z"/><polygon class="cls-1" points="24.48 82.36 27.09 82.36 23.24 100.47 20.63 100.47 24.48 82.36"/><polygon class="cls-1" points="36.3 82.36 35.76 84.93 33.31 84.93 30.01 100.47 27.39 100.47 30.7 84.93 28.25 84.93 28.8 82.36 36.3 82.36"/><polygon class="cls-1" points="45.7 94.76 51.37 82.36 53.99 82.36 50.14 100.47 47.64 100.47 49.8 90.3 45.4 100.47 43.63 100.47 43.49 90.3 41.33 100.47 38.8 100.47 42.65 82.36 45.26 82.36 45.7 94.76"/><polygon class="cls-1" points="56.39 82.36 63.16 82.36 62.62 84.93 58.45 84.93 57.35 90.12 60.93 90.12 60.38 92.7 56.8 92.7 55.69 97.89 59.86 97.89 59.31 100.47 52.54 100.47 56.39 82.36"/><polygon class="cls-1" points="65.15 82.36 67.76 82.36 63.91 100.47 61.3 100.47 65.15 82.36"/><path class="cls-1" d="M70.2,82.36h4c1.88,0,2.82.84,2.82,2.51a6.49,6.49,0,0,1-.15,1.3L74.67,96.66q-.81,3.8-4.46,3.81H66.36Zm2.07,2.57-2.76,13h1.15a1.35,1.35,0,0,0,1.4-1.23l2.22-10.49a1.77,1.77,0,0,0,.06-.43c0-.54-.31-.81-.92-.81Z"/><polygon class="cls-1" points="79.92 82.36 86.7 82.36 86.16 84.93 81.99 84.93 80.89 90.12 84.47 90.12 83.92 92.7 80.34 92.7 79.23 97.89 83.39 97.89 82.85 100.47 76.08 100.47 79.92 82.36"/><polygon class="cls-1" points="88.64 82.36 91.25 82.36 91.49 92.86 93.72 82.36 96.14 82.36 92.29 100.47 89.68 100.47 89.46 90.29 87.3 100.47 84.79 100.47 88.64 82.36"/><polygon class="cls-1" points="103.23 82.36 105.84 82.36 104.19 90.12 106.47 90.12 108.13 82.36 110.74 82.36 106.89 100.47 104.27 100.47 105.93 92.7 103.65 92.7 102 100.47 99.38 100.47 103.23 82.36"/><polygon class="cls-1" points="113.18 82.36 115.79 82.36 111.94 100.47 109.33 100.47 113.18 82.36"/><path class="cls-1" d="M122.46,97c-.54,2.53-2.07,3.81-4.57,3.81-2.06,0-3.08-.86-3.08-2.57A6.45,6.45,0,0,1,115,97l2.36-11.08q.81-3.8,4.56-3.8,3.09,0,3.09,2.58a5.7,5.7,0,0,1-.15,1.22l-.51,2.44h-2.62l.52-2.44a2,2,0,0,0,0-.4c0-.54-.31-.82-.93-.82h0a1.32,1.32,0,0,0-1.38,1.22L117.57,97a2.17,2.17,0,0,0,0,.41c0,.55.31.82.92.82A1.35,1.35,0,0,0,119.85,97l.9-4.25h-1.32l.55-2.58h3.93Z"/><polygon class="cls-1" points="127.78 82.36 130.39 82.36 128.74 90.12 131.02 90.12 132.67 82.36 135.28 82.36 131.43 100.47 128.82 100.47 130.47 92.7 128.19 92.7 126.54 100.47 123.93 100.47 127.78 82.36"/><path class="cls-1" d="M141.44,85.87q.81-3.8,4.56-3.8,3.09,0,3.09,2.58a5.7,5.7,0,0,1-.15,1.22l-.52,2.44h-2.61l.52-2.44a2,2,0,0,0,0-.4c0-.54-.31-.82-.93-.82h0a1.32,1.32,0,0,0-1.38,1.22l-.35,1.65a1.12,1.12,0,0,0,0,.27c0,.75.62,1.65,1.85,2.69a4.16,4.16,0,0,1,1.66,3.24,5.28,5.28,0,0,1-.1.94L146.59,97q-.81,3.81-4.56,3.81c-2.06,0-3.1-.87-3.1-2.58a5.71,5.71,0,0,1,.15-1.23l.52-2.44h2.61L141.7,97a1.58,1.58,0,0,0,0,.41c0,.55.31.82.93.82A1.33,1.33,0,0,0,144,97l.45-2.07a1.65,1.65,0,0,0,0-.31c0-.8-.62-1.72-1.84-2.75A4.15,4.15,0,0,1,141,88.57a4.44,4.44,0,0,1,.11-1Z"/><path class="cls-1" d="M156.12,97c-.54,2.53-2.06,3.81-4.57,3.81-2.05,0-3.08-.86-3.08-2.57a5.8,5.8,0,0,1,.15-1.24L151,85.87q.81-3.8,4.56-3.8,3.09,0,3.09,2.58a6.34,6.34,0,0,1-.14,1.22L158,88.31h-2.61l.51-2.44a1.46,1.46,0,0,0,0-.4c0-.54-.31-.82-.92-.82h0a1.33,1.33,0,0,0-1.39,1.22L151.23,97a2.17,2.17,0,0,0,0,.41c0,.55.31.82.93.82a1.34,1.34,0,0,0,1.4-1.23l.52-2.44h2.61Z"/><polygon class="cls-1" points="161.35 82.36 163.96 82.36 162.31 90.12 164.59 90.12 166.24 82.36 168.85 82.36 165 100.47 162.39 100.47 164.04 92.7 161.76 92.7 160.11 100.47 157.5 100.47 161.35 82.36"/><path class="cls-1" d="M175.47,97c-.54,2.53-2.06,3.81-4.57,3.81-2.05,0-3.08-.86-3.08-2.57A6.45,6.45,0,0,1,168,97l2.36-11.08q.81-3.8,4.56-3.8,3.09,0,3.09,2.58a5.7,5.7,0,0,1-.15,1.22Zm-.26-11.08a2,2,0,0,0,0-.4c0-.54-.31-.82-.93-.82h0a1.32,1.32,0,0,0-1.39,1.22L170.58,97a2.17,2.17,0,0,0-.05.41c0,.55.31.82.92.82A1.35,1.35,0,0,0,172.86,97Z"/><path class="cls-1" d="M185,97c-.54,2.53-2.06,3.81-4.56,3.81-2.06,0-3.09-.86-3.09-2.57A5.8,5.8,0,0,1,177.5,97l2.35-11.08q.83-3.8,4.56-3.8c2.07,0,3.1.86,3.1,2.58a5.7,5.7,0,0,1-.15,1.22Zm-.25-11.08a1.94,1.94,0,0,0,0-.4c0-.54-.3-.82-.92-.82h0a1.32,1.32,0,0,0-1.38,1.22L180.11,97a2.1,2.1,0,0,0,0,.41c0,.55.3.82.92.82a1.34,1.34,0,0,0,1.4-1.23Z"/><polygon class="cls-1" points="186.47 100.47 190.32 82.36 192.93 82.36 189.63 97.89 193.79 97.89 193.25 100.47 186.47 100.47"/><rect class="cls-1" x="258.07" y="25.73" width="10.59" height="48.56"/><polygon class="cls-1" points="271.24 0.11 283.46 0.11 252.35 53.97 240.13 53.97 271.24 0.11"/><polygon class="cls-1" points="254.74 0.11 266.97 0.11 252.35 25.42 240.13 25.42 254.74 0.11"/><rect class="cls-1" x="165.66" y="9.81" width="69.04" height="10.59"/><rect class="cls-1" x="204.96" y="42.47" width="10.59" height="31.76"/><rect class="cls-1" x="165.66" y="63.64" width="14.93" height="10.59"/><polygon class="cls-1" points="165.66 48.54 177.88 48.54 205.82 0.11 193.59 0.11 165.66 48.54"/><polygon class="cls-1" points="199.44 20.39 211.67 20.39 223.35 0.11 211.13 0.11 199.44 20.39"/><polygon class="cls-1" points="168.38 74.23 180.6 74.23 208.09 26.57 195.87 26.57 168.38 74.23"/><polygon class="cls-1" points="185.83 74.23 198.05 74.23 234.69 10.7 222.46 10.7 185.83 74.23"/><polygon class="cls-1" points="212.91 57.65 225.14 57.65 233.39 43.31 221.16 43.31 212.91 57.65"/><polygon class="cls-1" points="204.14 42.47 216.37 42.47 234.69 74.23 222.46 74.23 204.14 42.47"/><polygon class="cls-1" points="172.76 36.32 178.88 25.73 208.52 25.75 202.41 36.34 172.76 36.32"/><polygon class="cls-1" points="0 54.73 12.23 54.73 43.73 0 31.5 0 0 54.73"/><polygon class="cls-1" points="36.9 20.5 49.12 20.5 60.95 0 48.72 0 36.9 20.5"/><polyline class="cls-1" points="64.4 9.9 49.17 36.41 61.39 36.41 76.63 9.9"/><polygon class="cls-1" points="79.72 36.41 67.5 36.41 52.28 9.9 64.51 9.9 79.72 36.41"/><rect class="cls-1" x="21.34" y="20.5" width="10.59" height="53.84"/><rect class="cls-1" x="36.9" y="25.47" width="10.59" height="48.86"/><polygon class="cls-1" points="85.75 9.9 55.22 9.91 49.1 20.5 79.67 20.5 85.75 9.9"/><polygon class="cls-1" points="79.72 39.04 55.28 39.05 49.17 49.64 73.64 49.64 79.72 39.04"/><polygon class="cls-1" points="79.72 63.74 55.28 63.75 49.17 74.33 73.64 74.33 79.72 63.74"/><polygon class="cls-1" points="79.72 51.39 55.28 51.4 49.17 61.99 73.64 61.99 79.72 51.39"/><polygon class="cls-1" points="141.22 25.81 153.44 25.81 162.62 9.9 150.39 9.9 141.22 25.81"/><polygon class="cls-1" points="162.62 9.92 156.51 20.51 88.27 20.49 94.38 9.9 162.62 9.92"/><polygon class="cls-1" points="157.93 43.42 151.81 54.01 83.58 53.99 89.69 43.4 157.93 43.42"/><polygon class="cls-1" points="103.06 25.81 103.06 25.82 109.17 36.4 129.48 36.42 135.6 25.83 103.06 25.81"/><polygon class="cls-1" points="119.35 54 119.34 54 113.23 43.42 123.37 25.81 135.6 25.81 119.35 54"/><polygon class="cls-1" points="85.16 25.81 97.38 25.81 106.56 9.9 94.33 9.9 85.16 25.81"/><polygon class="cls-1" points="135.63 60.98 135.63 60.98 123.41 60.99 113.23 43.4 119.34 32.82 135.63 60.98"/><polygon class="cls-1" points="135.63 60.99 123.4 60.99 115.74 74.33 127.97 74.33 135.63 60.99"/><polygon class="cls-1" points="125.44 74.33 119.33 63.74 107.11 63.75 113.23 74.34 125.44 74.33"/><polygon class="cls-1" points="129.01 15.95 141.24 15.95 150.36 0.11 138.14 0.11 129.01 15.95"/><polygon class="cls-1" points="110.97 0.11 123.19 0.11 129.82 11.62 117.6 11.62 110.97 0.11"/><polygon class="cls-1" points="94.37 0.11 106.59 0.11 113.22 11.62 101 11.62 94.37 0.11"/><rect class="cls-1" x="287.84" y="25.79" width="10.59" height="48.5"/><rect class="cls-1" x="277.25" y="63.7" width="21.18" height="10.59"/><rect class="cls-1" x="271.96" y="25.79" width="42.35" height="10.59"/><polygon class="cls-1" points="275.99 20.46 282.1 9.87 306.48 9.87 306.48 20.45 275.99 20.46"/></g></g></svg>